<svg width="1630.351685" height="1209.380981" viewBox="0 0 1630.35 1209.38" fill="none" xmlns="http://www.w3.org/2000/svg" xmlns:xlink="http://www.w3.org/1999/xlink">
	<desc>
			Created with Pixso.
	</desc>
	<defs>
		<filter id="filter_2_14_dd" x="0.000000" y="0.000000" width="1630.351685" height="1209.380981" filterUnits="userSpaceOnUse" color-interpolation-filters="sRGB">
			<feFlood flood-opacity="0" result="BackgroundImageFix"/>
			<feBlend mode="normal" in="SourceGraphic" in2="BackgroundImageFix" result="shape"/>
			<feGaussianBlur stdDeviation="27" result="effect_layerBlur_1"/>
		</filter>
	</defs>
	<g filter="url(#filter_2_14_dd)">
		<path id="Форма 1" d="M429.49 1118.25C398.02 1070.19 670.79 952.34 639.59 885.03C639.59 885.03 608.39 817.71 639.59 885.03M639.59 885.03C639.59 885.03 551.1 881.05 507.99 816.24C480.66 775.16 505.71 675.69 473.99 645.74C392.24 568.56 321.24 685.74 262.49 611.24C203.74 536.74 240.24 400.37 203.49 331.74C166.74 263.12 91.99 242.24 91.99 242.24M507.99 816.24C507.99 816.24 432.87 926.24 339.99 926.24C247.12 926.24 268.12 832.49 203.49 783.24C138.87 733.99 81.49 729.24 81.49 729.24M473.99 645.74C473.99 645.74 543.12 660.37 602.49 584.74C661.87 509.12 711.49 453.74 711.49 343.24M639.59 885.03C639.59 885.03 784.99 886.74 784.99 766.24C784.99 645.74 896.49 520.74 896.49 520.74" stroke="#FFFFFF" stroke-opacity="1.000000" stroke-width="12.000000"/>
		<path id="Форма 2" d="M887.59 1123.25C922.26 1102.25 1025.49 1067.57 1025.49 1007.75C1025.49 947.91 907.99 953.46 887.59 883.92C876.52 846.17 892.08 810.07 918.34 786.19C940.46 766.07 970.19 754.62 997.99 758.19C1058.8 765.97 1003.67 661.38 1058.79 602.97C1113.92 544.56 1137.18 524.53 1218.49 524.53C1299.8 524.53 1325.24 526.17 1383.99 602.97C1442.74 679.77 1413.12 769.93 1453.49 831.74C1493.87 893.56 1545.49 850.24 1545.49 850.24M918.34 786.19C918.34 786.19 942.38 626.66 902.79 524.53C885.28 479.34 864.16 461.23 842.13 448.08C814.38 431.5 785.19 422.79 759.99 377.66C714.79 296.71 701.45 251.97 721.99 200.74C742.53 149.52 849.67 189.74 908.79 160.74C967.92 131.74 958.49 84.74 958.49 84.74M842.13 448.08C842.13 448.08 852.93 385.25 908.79 337.6C964.65 289.95 991.79 307.95 1065.59 257.49C1139.39 207.03 1101.65 183.93 1170.99 149.24C1240.34 114.56 1344.62 188.12 1405.99 172.74C1467.37 157.37 1525.49 84.74 1525.49 84.74M745.68 347.57C711.59 328.14 656.69 342.89 616.39 308.67C576.09 274.46 628.77 240.6 574.79 200.74C520.82 160.89 503.82 156.24 400.49 149.24C297.17 142.24 237.74 188.87 161.49 172.74C85.24 156.62 95.49 84.74 95.49 84.74" stroke="#FFFFFF" stroke-opacity="1.000000" stroke-width="12.000000"/>
	</g>
</svg>
